<svg class = "signature__icon" xmlns="http://www.w3.org/2000/svg" xmlns:xlink="http://www.w3.org/1999/xlink" viewBox="0 0 700 347" width="700" height="347"><path d="M 62.500,88.500 C 65.543,84.425 66.000,85.000 69.500,81.500" stroke-width="5.416" stroke="#ECB390" fill="none" stroke-linecap="round"></path><path d="M 69.500,81.500 C 77.318,76.175 77.043,75.925 85.500,71.500" stroke-width="3.062" stroke="#ECB390" fill="none" stroke-linecap="round"></path><path d="M 85.500,71.500 C 91.418,68.324 91.318,68.175 97.500,65.500" stroke-width="3.060" stroke="#ECB390" fill="none" stroke-linecap="round"></path><path d="M 97.500,65.500 C 105.364,61.629 105.418,61.824 113.500,58.500" stroke-width="2.855" stroke="#ECB390" fill="none" stroke-linecap="round"></path><path d="M 113.500,58.500 C 118.420,56.453 118.364,56.629 123.500,55.500" stroke-width="3.218" stroke="#ECB390" fill="none" stroke-linecap="round"></path><path d="M 123.500,55.500 C 126.926,54.471 126.420,54.953 129.500,55.500" stroke-width="4.184" stroke="#ECB390" fill="none" stroke-linecap="round"></path><path d="M 129.500,55.500 C 132.469,57.026 131.926,56.471 133.500,59.500" stroke-width="4.611" stroke="#ECB390" fill="none" stroke-linecap="round"></path><path d="M 133.500,59.500 C 134.038,63.496 134.969,63.026 134.500,67.500" stroke-width="3.965" stroke="#ECB390" fill="none" stroke-linecap="round"></path><path d="M 134.500,67.500 C 135.998,76.472 135.538,76.496 136.500,85.500" stroke-width="3.006" stroke="#ECB390" fill="none" stroke-linecap="round"></path><path d="M 136.500,85.500 C 137.313,94.562 136.998,94.472 136.500,103.500" stroke-width="2.809" stroke="#ECB390" fill="none" stroke-linecap="round"></path><path d="M 136.500,103.500 C 136.034,116.910 135.313,116.562 132.500,129.500" stroke-width="2.360" stroke="#ECB390" fill="none" stroke-linecap="round"></path><path d="M 132.500,129.500 C 127.513,145.473 128.034,145.410 120.500,160.500" stroke-width="1.960" stroke="#ECB390" fill="none" stroke-linecap="round"></path><path d="M 120.500,160.500 C 112.657,175.089 113.513,175.473 104.500,189.500" stroke-width="1.869" stroke="#ECB390" fill="none" stroke-linecap="round"></path><path d="M 104.500,189.500 C 97.600,201.560 97.657,201.589 90.500,213.500" stroke-width="1.996" stroke="#ECB390" fill="none" stroke-linecap="round"></path><path d="M 90.500,213.500 C 86.461,219.976 86.600,220.060 82.500,226.500" stroke-width="2.541" stroke="#ECB390" fill="none" stroke-linecap="round"></path><path d="M 82.500,226.500 C 77.705,233.854 77.961,233.976 73.500,241.500" stroke-width="2.752" stroke="#ECB390" fill="none" stroke-linecap="round"></path><path d="M 73.500,241.500 C 72.270,243.932 72.205,243.854 71.500,246.500" stroke-width="3.632" stroke="#ECB390" fill="none" stroke-linecap="round"></path><path d="M 71.500,246.500 C 69.812,252.464 70.770,248.932 70.500,251.500" stroke-width="4.556" stroke="#ECB390" fill="none" stroke-linecap="round"></path><path d="M 70.500,251.500 C 73.891,245.667 72.312,248.964 76.500,239.500" stroke-width="5.196" stroke="#ECB390" fill="none" stroke-linecap="round"></path><path d="M 76.500,239.500 C 78.629,232.347 79.391,232.667 81.500,225.500" stroke-width="3.436" stroke="#ECB390" fill="none" stroke-linecap="round"></path><path d="M 81.500,225.500 C 85.300,216.900 85.129,216.847 89.500,208.500" stroke-width="2.863" stroke="#ECB390" fill="none" stroke-linecap="round"></path><path d="M 89.500,208.500 C 95.103,199.272 94.300,198.900 99.500,189.500" stroke-width="2.524" stroke="#ECB390" fill="none" stroke-linecap="round"></path><path d="M 99.500,189.500 C 102.989,178.775 104.103,179.272 107.500,168.500" stroke-width="2.452" stroke="#ECB390" fill="none" stroke-linecap="round"></path><path d="M 107.500,168.500 C 112.399,158.448 111.989,158.275 117.500,148.500" stroke-width="2.436" stroke="#ECB390" fill="none" stroke-linecap="round"></path><path d="M 117.500,148.500 C 122.590,139.046 122.399,138.948 127.500,129.500" stroke-width="2.412" stroke="#ECB390" fill="none" stroke-linecap="round"></path><path d="M 127.500,129.500 C 131.605,121.551 131.590,121.546 135.500,113.500" stroke-width="2.578" stroke="#ECB390" fill="none" stroke-linecap="round"></path><path d="M 135.500,113.500 C 138.801,105.897 139.105,106.051 142.500,98.500" stroke-width="2.762" stroke="#ECB390" fill="none" stroke-linecap="round"></path><path d="M 142.500,98.500 C 144.399,94.939 144.301,94.897 146.500,91.500" stroke-width="3.424" stroke="#ECB390" fill="none" stroke-linecap="round"></path><path d="M 146.500,91.500 C 149.821,85.876 149.899,85.939 153.500,80.500" stroke-width="3.190" stroke="#ECB390" fill="none" stroke-linecap="round"></path><path d="M 153.500,80.500 C 156.543,76.532 156.321,76.376 159.500,72.500" stroke-width="3.428" stroke="#ECB390" fill="none" stroke-linecap="round"></path><path d="M 159.500,72.500 C 161.816,68.855 162.043,69.032 164.500,65.500" stroke-width="3.684" stroke="#ECB390" fill="none" stroke-linecap="round"></path><path d="M 164.500,65.500 C 168.068,61.557 167.816,61.355 171.500,57.500" stroke-width="4.045" stroke="#ECB390" fill="none" stroke-linecap="round"></path><path d="M 171.500,57.500 C 174.393,51.836 173.568,55.057 175.500,52.500" stroke-width="4.668" stroke="#ECB390" fill="none" stroke-linecap="round"></path><path d="M 175.500,52.500 C 175.967,56.504 176.893,53.336 176.500,60.500" stroke-width="5.172" stroke="#ECB390" fill="none" stroke-linecap="round"></path><path d="M 176.500,60.500 C 176.976,64.004 176.967,64.004 177.500,67.500" stroke-width="4.212" stroke="#ECB390" fill="none" stroke-linecap="round"></path><path d="M 177.500,67.500 C 178.867,73.962 178.476,74.004 179.500,80.500" stroke-width="3.356" stroke="#ECB390" fill="none" stroke-linecap="round"></path><path d="M 179.500,80.500 C 180.320,89.491 180.367,89.462 180.500,98.500" stroke-width="2.824" stroke="#ECB390" fill="none" stroke-linecap="round"></path><path d="M 180.500,98.500 C 180.500,114.500 180.820,114.491 180.500,130.500" stroke-width="2.151" stroke="#ECB390" fill="none" stroke-linecap="round"></path><path d="M 180.500,130.500 C 181.011,141.025 180.500,141.000 180.500,151.500" stroke-width="2.394" stroke="#ECB390" fill="none" stroke-linecap="round"></path><path d="M 180.500,151.500 C 179.881,161.555 180.011,161.525 178.500,171.500" stroke-width="2.573" stroke="#ECB390" fill="none" stroke-linecap="round"></path><path d="M 178.500,171.500 C 177.037,179.507 177.381,179.555 175.500,187.500" stroke-width="2.720" stroke="#ECB390" fill="none" stroke-linecap="round"></path><path d="M 175.500,187.500 C 174.005,192.451 174.537,192.507 173.500,197.500" stroke-width="3.232" stroke="#ECB390" fill="none" stroke-linecap="round"></path><path d="M 173.500,197.500 C 173.500,202.500 173.005,202.451 173.500,207.500" stroke-width="3.389" stroke="#ECB390" fill="none" stroke-linecap="round"></path><path d="M 173.500,207.500 C 173.500,211.000 173.500,211.000 173.500,214.500" stroke-width="3.826" stroke="#ECB390" fill="none" stroke-linecap="round"></path><path d="M 173.500,214.500 C 173.500,217.500 173.500,217.500 173.500,220.500" stroke-width="4.008" stroke="#ECB390" fill="none" stroke-linecap="round"></path><path d="M 173.500,220.500 C 173.500,223.500 173.500,223.500 173.500,226.500" stroke-width="4.066" stroke="#ECB390" fill="none" stroke-linecap="round"></path><path d="M 173.500,226.500 C 173.500,229.500 173.500,229.500 173.500,232.500" stroke-width="4.528" stroke="#ECB390" fill="none" stroke-linecap="round"></path><path d="M 173.500,232.500 C 173.500,235.500 173.500,235.500 173.500,238.500" stroke-width="5.186" stroke="#ECB390" fill="none" stroke-linecap="round"></path><path d="M 173.500,238.500 C 171.843,244.316 173.500,241.500 173.500,244.500" stroke-width="5.160" stroke="#ECB390" fill="none" stroke-linecap="round"></path><path d="M 173.500,244.500 C 178.350,242.464 176.343,244.816 182.500,239.500" stroke-width="5.308" stroke="#ECB390" fill="none" stroke-linecap="round"></path><path d="M 182.500,239.500 C 185.272,237.223 185.350,237.464 187.500,234.500" stroke-width="4.238" stroke="#ECB390" fill="none" stroke-linecap="round"></path><path d="M 187.500,234.500 C 189.611,231.569 189.772,231.723 191.500,228.500" stroke-width="3.979" stroke="#ECB390" fill="none" stroke-linecap="round"></path><path d="M 191.500,228.500 C 193.365,224.916 193.611,225.069 195.500,221.500" stroke-width="3.809" stroke="#ECB390" fill="none" stroke-linecap="round"></path><path d="M 195.500,221.500 C 198.763,217.153 198.365,216.916 201.500,212.500" stroke-width="3.597" stroke="#ECB390" fill="none" stroke-linecap="round"></path><path d="M 201.500,212.500 C 203.169,208.288 203.763,208.653 205.500,204.500" stroke-width="3.605" stroke="#ECB390" fill="none" stroke-linecap="round"></path><path d="M 205.500,204.500 C 207.668,202.117 207.169,201.788 209.500,199.500" stroke-width="3.884" stroke="#ECB390" fill="none" stroke-linecap="round"></path><path d="M 209.500,199.500 C 211.000,197.000 211.168,197.117 212.500,194.500" stroke-width="4.132" stroke="#ECB390" fill="none" stroke-linecap="round"></path><path d="M 212.500,194.500 C 215.676,188.622 214.000,192.000 215.500,189.500" stroke-width="4.551" stroke="#ECB390" fill="none" stroke-linecap="round"></path><path d="M 215.500,189.500 C 214.002,194.774 215.176,191.122 211.500,199.500" stroke-width="4.971" stroke="#ECB390" fill="none" stroke-linecap="round"></path><path d="M 211.500,199.500 C 208.706,202.823 209.502,203.274 206.500,206.500" stroke-width="4.094" stroke="#ECB390" fill="none" stroke-linecap="round"></path><path d="M 206.500,206.500 C 204.619,210.565 204.206,210.323 202.500,214.500" stroke-width="3.799" stroke="#ECB390" fill="none" stroke-linecap="round"></path><path d="M 202.500,214.500 C 200.339,216.772 201.119,217.065 199.500,219.500" stroke-width="4.064" stroke="#ECB390" fill="none" stroke-linecap="round"></path><path d="M 199.500,219.500 C 198.787,223.487 198.339,223.272 198.500,227.500" stroke-width="4.373" stroke="#ECB390" fill="none" stroke-linecap="round"></path><path d="M 198.500,227.500 C 197.317,233.697 198.287,230.487 198.500,233.500" stroke-width="4.637" stroke="#ECB390" fill="none" stroke-linecap="round"></path><path d="M 198.500,233.500 C 201.645,230.116 200.317,233.197 204.500,226.500" stroke-width="5.136" stroke="#ECB390" fill="none" stroke-linecap="round"></path><path d="M 204.500,226.500 C 208.710,220.248 209.145,220.616 213.500,214.500" stroke-width="3.417" stroke="#ECB390" fill="none" stroke-linecap="round"></path><path d="M 213.500,214.500 C 216.365,211.350 216.210,211.248 219.500,208.500" stroke-width="3.691" stroke="#ECB390" fill="none" stroke-linecap="round"></path><path d="M 219.500,208.500 C 222.000,206.500 221.865,206.350 224.500,204.500" stroke-width="3.914" stroke="#ECB390" fill="none" stroke-linecap="round"></path><path d="M 224.500,204.500 C 228.745,199.997 227.000,202.500 229.500,200.500" stroke-width="4.467" stroke="#ECB390" fill="none" stroke-linecap="round"></path><path d="M 229.500,200.500 C 229.106,203.824 230.245,200.997 227.500,206.500" stroke-width="5.130" stroke="#ECB390" fill="none" stroke-linecap="round"></path><path d="M 227.500,206.500 C 223.869,210.906 224.606,211.324 220.500,215.500" stroke-width="4.400" stroke="#ECB390" fill="none" stroke-linecap="round"></path><path d="M 220.500,215.500 C 218.435,218.459 218.369,218.406 216.500,221.500" stroke-width="4.566" stroke="#ECB390" fill="none" stroke-linecap="round"></path><path d="M 216.500,221.500 C 212.358,226.119 214.935,223.959 213.500,226.500" stroke-width="4.893" stroke="#ECB390" fill="none" stroke-linecap="round"></path><path d="M 213.500,226.500 C 218.986,226.203 215.358,227.119 222.500,223.500" stroke-width="5.239" stroke="#ECB390" fill="none" stroke-linecap="round"></path><path d="M 222.500,223.500 C 224.963,220.215 225.486,221.203 226.500,216.500" stroke-width="4.091" stroke="#ECB390" fill="none" stroke-linecap="round"></path><path d="M 226.500,216.500 C 231.496,205.765 230.963,205.715 234.500,194.500" stroke-width="2.709" stroke="#ECB390" fill="none" stroke-linecap="round"></path><path d="M 234.500,194.500 C 236.944,183.061 237.496,183.265 238.500,171.500" stroke-width="2.463" stroke="#ECB390" fill="none" stroke-linecap="round"></path><path d="M 238.500,171.500 C 240.424,157.030 240.444,157.061 241.500,142.500" stroke-width="2.175" stroke="#ECB390" fill="none" stroke-linecap="round"></path><path d="M 241.500,142.500 C 241.859,129.992 242.424,130.030 242.500,117.500" stroke-width="2.188" stroke="#ECB390" fill="none" stroke-linecap="round"></path><path d="M 242.500,117.500 C 243.240,110.509 242.859,110.492 243.500,103.500" stroke-width="2.698" stroke="#ECB390" fill="none" stroke-linecap="round"></path><path d="M 243.500,103.500 C 243.230,96.988 243.740,97.009 243.500,90.500" stroke-width="3.023" stroke="#ECB390" fill="none" stroke-linecap="round"></path><path d="M 243.500,90.500 C 243.950,84.995 243.730,84.988 244.500,79.500" stroke-width="3.284" stroke="#ECB390" fill="none" stroke-linecap="round"></path><path d="M 244.500,79.500 C 245.199,75.011 244.950,74.995 245.500,70.500" stroke-width="4.017" stroke="#ECB390" fill="none" stroke-linecap="round"></path><path d="M 245.500,70.500 C 245.216,63.222 245.699,67.511 245.500,64.500" stroke-width="4.752" stroke="#ECB390" fill="none" stroke-linecap="round"></path><path d="M 245.500,64.500 C 246.952,71.959 246.216,67.722 247.500,79.500" stroke-width="5.055" stroke="#ECB390" fill="none" stroke-linecap="round"></path><path d="M 247.500,79.500 C 248.903,99.490 248.952,99.459 249.500,119.500" stroke-width="2.097" stroke="#ECB390" fill="none" stroke-linecap="round"></path><path d="M 249.500,119.500 C 249.240,133.005 249.903,132.990 249.500,146.500" stroke-width="2.094" stroke="#ECB390" fill="none" stroke-linecap="round"></path><path d="M 249.500,146.500 C 249.979,159.001 249.740,159.005 250.500,171.500" stroke-width="2.218" stroke="#ECB390" fill="none" stroke-linecap="round"></path><path d="M 250.500,171.500 C 251.180,182.996 250.979,183.001 251.500,194.500" stroke-width="2.279" stroke="#ECB390" fill="none" stroke-linecap="round"></path><path d="M 251.500,194.500 C 251.250,201.010 251.680,200.996 251.500,207.500" stroke-width="2.800" stroke="#ECB390" fill="none" stroke-linecap="round"></path><path d="M 251.500,207.500 C 252.000,214.000 251.750,214.010 252.500,220.500" stroke-width="3.058" stroke="#ECB390" fill="none" stroke-linecap="round"></path><path d="M 252.500,220.500 C 252.781,227.030 253.000,227.000 253.500,233.500" stroke-width="3.087" stroke="#ECB390" fill="none" stroke-linecap="round"></path><path d="M 253.500,233.500 C 254.044,235.992 253.781,236.030 254.500,238.500" stroke-width="3.862" stroke="#ECB390" fill="none" stroke-linecap="round"></path><path d="M 254.500,238.500 C 254.704,244.235 255.044,241.492 255.500,244.500" stroke-width="4.456" stroke="#ECB390" fill="none" stroke-linecap="round"></path><path d="M 255.500,244.500 C 256.500,242.000 256.204,244.735 257.500,239.500" stroke-width="5.143" stroke="#ECB390" fill="none" stroke-linecap="round"></path><path d="M 257.500,239.500 C 258.387,236.949 258.500,237.000 259.500,234.500" stroke-width="4.500" stroke="#ECB390" fill="none" stroke-linecap="round"></path><path d="M 259.500,234.500 C 261.379,231.640 260.887,231.449 262.500,228.500" stroke-width="4.163" stroke="#ECB390" fill="none" stroke-linecap="round"></path><path d="M 262.500,228.500 C 263.368,224.462 263.879,224.640 264.500,220.500" stroke-width="3.893" stroke="#ECB390" fill="none" stroke-linecap="round"></path><path d="M 264.500,220.500 C 265.500,217.500 265.368,217.462 266.500,214.500" stroke-width="3.989" stroke="#ECB390" fill="none" stroke-linecap="round"></path><path d="M 266.500,214.500 C 267.500,211.500 267.500,211.500 268.500,208.500" stroke-width="4.019" stroke="#ECB390" fill="none" stroke-linecap="round"></path><path d="M 268.500,208.500 C 268.679,204.841 269.500,205.500 270.500,202.500" stroke-width="4.075" stroke="#ECB390" fill="none" stroke-linecap="round"></path><path d="M 270.500,202.500 C 273.821,198.780 272.179,200.341 275.500,199.500" stroke-width="4.838" stroke="#ECB390" fill="none" stroke-linecap="round"></path><path d="M 275.500,199.500 C 276.735,202.442 277.321,200.280 277.500,205.500" stroke-width="5.045" stroke="#ECB390" fill="none" stroke-linecap="round"></path><path d="M 277.500,205.500 C 277.956,208.508 278.235,208.442 278.500,211.500" stroke-width="4.850" stroke="#ECB390" fill="none" stroke-linecap="round"></path><path d="M 278.500,211.500 C 278.610,217.390 278.956,214.008 279.500,216.500" stroke-width="5.019" stroke="#ECB390" fill="none" stroke-linecap="round"></path><path d="M 279.500,216.500 C 281.801,210.898 281.610,214.390 284.500,205.500" stroke-width="5.232" stroke="#ECB390" fill="none" stroke-linecap="round"></path><path d="M 284.500,205.500 C 286.426,201.956 286.301,201.898 288.500,198.500" stroke-width="4.090" stroke="#ECB390" fill="none" stroke-linecap="round"></path><path d="M 288.500,198.500 C 290.819,194.372 290.926,194.456 293.500,190.500" stroke-width="3.747" stroke="#ECB390" fill="none" stroke-linecap="round"></path><path d="M 293.500,190.500 C 297.272,185.043 295.319,187.872 297.500,185.500" stroke-width="3.978" stroke="#ECB390" fill="none" stroke-linecap="round"></path><path d="M 297.500,185.500 C 295.866,188.949 297.772,186.043 294.500,192.500" stroke-width="4.846" stroke="#ECB390" fill="none" stroke-linecap="round"></path><path d="M 294.500,192.500 C 293.634,195.551 293.366,195.449 292.500,198.500" stroke-width="4.246" stroke="#ECB390" fill="none" stroke-linecap="round"></path><path d="M 292.500,198.500 C 290.700,201.899 291.134,202.051 289.500,205.500" stroke-width="4.082" stroke="#ECB390" fill="none" stroke-linecap="round"></path><path d="M 289.500,205.500 C 286.621,210.278 288.200,209.399 287.500,213.500" stroke-width="4.416" stroke="#ECB390" fill="none" stroke-linecap="round"></path><path d="M 287.500,213.500 C 289.901,216.240 288.121,215.778 292.500,216.500" stroke-width="4.970" stroke="#ECB390" fill="none" stroke-linecap="round"></path><path d="M 292.500,216.500 C 295.719,216.281 294.901,216.740 297.500,214.500" stroke-width="4.460" stroke="#ECB390" fill="none" stroke-linecap="round"></path><path d="M 297.500,214.500 C 300.013,211.664 299.719,212.281 300.500,208.500" stroke-width="4.898" stroke="#ECB390" fill="none" stroke-linecap="round"></path><path d="M 300.500,208.500 C 300.889,204.556 301.013,205.164 299.500,201.500" stroke-width="4.919" stroke="#ECB390" fill="none" stroke-linecap="round"></path><path d="M 299.500,201.500 C 295.729,199.787 298.389,199.056 295.500,197.500" stroke-width="5.108" stroke="#ECB390" fill="none" stroke-linecap="round"></path><path d="M 295.500,197.500 C 296.453,194.058 295.229,194.787 298.500,191.500" stroke-width="5.312" stroke="#ECB390" fill="none" stroke-linecap="round"></path><path d="M 298.500,191.500 C 301.246,189.754 300.453,189.058 303.500,187.500" stroke-width="4.334" stroke="#ECB390" fill="none" stroke-linecap="round"></path><path d="M 303.500,187.500 C 306.981,184.344 306.746,184.254 309.500,180.500" stroke-width="3.829" stroke="#ECB390" fill="none" stroke-linecap="round"></path><path d="M 309.500,180.500 C 316.940,169.929 316.481,169.844 322.500,158.500" stroke-width="2.490" stroke="#ECB390" fill="none" stroke-linecap="round"></path><path d="M 322.500,158.500 C 325.081,151.026 325.940,151.429 327.500,143.500" stroke-width="2.823" stroke="#ECB390" fill="none" stroke-linecap="round"></path><path d="M 327.500,143.500 C 329.568,137.020 329.581,137.026 331.500,130.500" stroke-width="3.028" stroke="#ECB390" fill="none" stroke-linecap="round"></path><path d="M 331.500,130.500 C 333.202,123.394 333.568,123.520 335.500,116.500" stroke-width="2.969" stroke="#ECB390" fill="none" stroke-linecap="round"></path><path d="M 335.500,116.500 C 337.388,113.114 336.702,112.894 338.500,109.500" stroke-width="3.556" stroke="#ECB390" fill="none" stroke-linecap="round"></path><path d="M 338.500,109.500 C 339.038,103.269 339.388,106.614 339.500,103.500" stroke-width="3.947" stroke="#ECB390" fill="none" stroke-linecap="round"></path><path d="M 339.500,103.500 C 340.347,106.975 340.038,103.769 340.500,110.500" stroke-width="4.766" stroke="#ECB390" fill="none" stroke-linecap="round"></path><path d="M 340.500,110.500 C 341.599,118.621 340.847,118.475 340.500,126.500" stroke-width="3.356" stroke="#ECB390" fill="none" stroke-linecap="round"></path><path d="M 340.500,126.500 C 337.716,140.052 338.599,140.121 334.500,153.500" stroke-width="2.402" stroke="#ECB390" fill="none" stroke-linecap="round"></path><path d="M 334.500,153.500 C 332.063,163.017 332.216,163.052 329.500,172.500" stroke-width="2.544" stroke="#ECB390" fill="none" stroke-linecap="round"></path><path d="M 329.500,172.500 C 326.699,181.428 327.063,181.517 324.500,190.500" stroke-width="2.638" stroke="#ECB390" fill="none" stroke-linecap="round"></path><path d="M 324.500,190.500 C 323.050,198.010 322.699,197.928 321.500,205.500" stroke-width="2.800" stroke="#ECB390" fill="none" stroke-linecap="round"></path><path d="M 321.500,205.500 C 319.507,212.448 320.050,212.510 318.500,219.500" stroke-width="2.916" stroke="#ECB390" fill="none" stroke-linecap="round"></path><path d="M 318.500,219.500 C 318.718,223.012 318.007,222.948 318.500,226.500" stroke-width="3.590" stroke="#ECB390" fill="none" stroke-linecap="round"></path><path d="M 318.500,226.500 C 317.782,230.988 318.218,231.012 317.500,235.500" stroke-width="3.695" stroke="#ECB390" fill="none" stroke-linecap="round"></path><path d="M 317.500,235.500 C 317.500,239.000 317.282,238.988 317.500,242.500" stroke-width="3.893" stroke="#ECB390" fill="none" stroke-linecap="round"></path><path d="M 317.500,242.500 C 317.500,245.500 317.500,245.500 317.500,248.500" stroke-width="4.075" stroke="#ECB390" fill="none" stroke-linecap="round"></path><path d="M 317.500,248.500 C 316.647,254.713 317.500,251.500 317.500,254.500" stroke-width="4.787" stroke="#ECB390" fill="none" stroke-linecap="round"></path><path d="M 317.500,254.500 C 319.064,250.667 318.647,254.213 321.500,247.500" stroke-width="5.119" stroke="#ECB390" fill="none" stroke-linecap="round"></path><path d="M 321.500,247.500 C 324.710,244.688 324.064,244.167 327.500,241.500" stroke-width="4.079" stroke="#ECB390" fill="none" stroke-linecap="round"></path><path d="M 327.500,241.500 C 331.696,236.646 331.710,236.688 335.500,231.500" stroke-width="3.490" stroke="#ECB390" fill="none" stroke-linecap="round"></path><path d="M 335.500,231.500 C 339.685,224.759 340.196,225.146 344.500,218.500" stroke-width="3.066" stroke="#ECB390" fill="none" stroke-linecap="round"></path><path d="M 344.500,218.500 C 350.185,212.144 349.685,211.759 355.500,205.500" stroke-width="2.819" stroke="#ECB390" fill="none" stroke-linecap="round"></path><path d="M 355.500,205.500 C 357.785,201.818 358.185,202.144 360.500,198.500" stroke-width="3.482" stroke="#ECB390" fill="none" stroke-linecap="round"></path><path d="M 360.500,198.500 C 365.119,194.500 362.285,196.318 364.500,194.500" stroke-width="4.334" stroke="#ECB390" fill="none" stroke-linecap="round"></path><path d="M 364.500,194.500 C 360.802,196.214 363.619,194.500 357.500,198.500" stroke-width="4.953" stroke="#ECB390" fill="none" stroke-linecap="round"></path><path d="M 357.500,198.500 C 354.346,200.832 354.302,200.714 351.500,203.500" stroke-width="4.129" stroke="#ECB390" fill="none" stroke-linecap="round"></path><path d="M 351.500,203.500 C 346.500,208.500 346.346,208.332 341.500,213.500" stroke-width="3.326" stroke="#ECB390" fill="none" stroke-linecap="round"></path><path d="M 341.500,213.500 C 339.149,215.232 339.500,215.500 337.500,217.500" stroke-width="3.941" stroke="#ECB390" fill="none" stroke-linecap="round"></path><path d="M 337.500,217.500 C 332.940,221.978 335.149,220.732 333.500,224.500" stroke-width="3.798" stroke="#ECB390" fill="none" stroke-linecap="round"></path><path d="M 333.500,224.500 C 337.089,227.705 333.940,226.478 339.500,226.500" stroke-width="4.778" stroke="#ECB390" fill="none" stroke-linecap="round"></path><path d="M 339.500,226.500 C 343.747,222.191 344.089,224.205 347.500,217.500" stroke-width="3.560" stroke="#ECB390" fill="none" stroke-linecap="round"></path><path d="M 347.500,217.500 C 349.500,214.500 349.747,214.691 351.500,211.500" stroke-width="3.776" stroke="#ECB390" fill="none" stroke-linecap="round"></path><path d="M 351.500,211.500 C 353.611,208.569 353.500,208.500 355.500,205.500" stroke-width="3.941" stroke="#ECB390" fill="none" stroke-linecap="round"></path><path d="M 355.500,205.500 C 357.819,198.780 357.611,202.069 359.500,198.500" stroke-width="4.330" stroke="#ECB390" fill="none" stroke-linecap="round"></path><path d="M 359.500,198.500 C 361.087,201.405 360.819,198.280 361.500,204.500" stroke-width="5.026" stroke="#ECB390" fill="none" stroke-linecap="round"></path><path d="M 361.500,204.500 C 361.500,209.000 362.087,208.905 361.500,213.500" stroke-width="4.586" stroke="#ECB390" fill="none" stroke-linecap="round"></path><path d="M 361.500,213.500 C 360.232,217.218 361.500,216.500 361.500,219.500" stroke-width="4.690" stroke="#ECB390" fill="none" stroke-linecap="round"></path><path d="M 361.500,219.500 C 364.590,223.455 362.732,221.718 366.500,222.500" stroke-width="5.111" stroke="#ECB390" fill="none" stroke-linecap="round"></path><path d="M 366.500,222.500 C 369.287,218.650 369.590,220.955 371.500,214.500" stroke-width="4.594" stroke="#ECB390" fill="none" stroke-linecap="round"></path><path d="M 371.500,214.500 C 373.302,211.094 373.287,211.150 374.500,207.500" stroke-width="4.073" stroke="#ECB390" fill="none" stroke-linecap="round"></path><path d="M 374.500,207.500 C 374.770,204.932 375.302,205.094 375.500,202.500" stroke-width="4.248" stroke="#ECB390" fill="none" stroke-linecap="round"></path><path d="M 375.500,202.500 C 376.730,200.068 376.270,199.932 377.500,197.500" stroke-width="4.220" stroke="#ECB390" fill="none" stroke-linecap="round"></path><path d="M 377.500,197.500 C 378.203,191.459 378.230,195.068 378.500,192.500" stroke-width="4.669" stroke="#ECB390" fill="none" stroke-linecap="round"></path><path d="M 378.500,192.500 C 378.836,198.521 379.203,194.959 379.500,204.500" stroke-width="4.957" stroke="#ECB390" fill="none" stroke-linecap="round"></path><path d="M 379.500,204.500 C 379.704,207.583 379.836,207.521 380.500,210.500" stroke-width="4.405" stroke="#ECB390" fill="none" stroke-linecap="round"></path><path d="M 380.500,210.500 C 381.300,213.099 381.204,213.083 382.500,215.500" stroke-width="4.311" stroke="#ECB390" fill="none" stroke-linecap="round"></path><path d="M 382.500,215.500 C 386.020,218.680 383.800,218.099 385.500,220.500" stroke-width="4.795" stroke="#ECB390" fill="none" stroke-linecap="round"></path><path d="M 385.500,220.500 C 383.110,221.941 385.020,222.180 380.500,222.500" stroke-width="5.188" stroke="#ECB390" fill="none" stroke-linecap="round"></path><path d="M 380.500,222.500 C 375.978,222.860 376.110,223.441 371.500,223.500" stroke-width="4.621" stroke="#ECB390" fill="none" stroke-linecap="round"></path><path d="M 371.500,223.500 C 366.099,224.901 368.978,223.860 366.500,224.500" stroke-width="4.949" stroke="#ECB390" fill="none" stroke-linecap="round"></path><path d="M 366.500,224.500 C 369.949,222.866 367.099,223.901 373.500,221.500" stroke-width="5.020" stroke="#ECB390" fill="none" stroke-linecap="round"></path><path d="M 373.500,221.500 C 376.462,220.368 376.449,220.366 379.500,219.500" stroke-width="4.285" stroke="#ECB390" fill="none" stroke-linecap="round"></path><path d="M 379.500,219.500 C 383.443,218.041 383.462,218.368 387.500,217.500" stroke-width="3.924" stroke="#ECB390" fill="none" stroke-linecap="round"></path><path d="M 387.500,217.500 C 391.014,217.732 390.943,217.041 394.500,217.500" stroke-width="3.966" stroke="#ECB390" fill="none" stroke-linecap="round"></path><path d="M 394.500,217.500 C 398.518,217.113 398.514,217.232 402.500,216.500" stroke-width="4.339" stroke="#ECB390" fill="none" stroke-linecap="round"></path><path d="M 415.500,118.500 C 415.464,115.778 416.000,116.000 416.500,113.500" stroke-width="5.520" stroke="#ECB390" fill="none" stroke-linecap="round"></path><path d="M 416.500,113.500 C 418.258,110.302 417.964,110.278 420.500,107.500" stroke-width="4.373" stroke="#ECB390" fill="none" stroke-linecap="round"></path><path d="M 420.500,107.500 C 422.409,105.401 422.258,105.302 424.500,103.500" stroke-width="4.167" stroke="#ECB390" fill="none" stroke-linecap="round"></path><path d="M 424.500,103.500 C 429.560,96.207 427.909,100.401 431.500,97.500" stroke-width="4.305" stroke="#ECB390" fill="none" stroke-linecap="round"></path><path d="M 431.500,97.500 C 433.730,103.528 434.060,99.207 433.500,109.500" stroke-width="4.837" stroke="#ECB390" fill="none" stroke-linecap="round"></path><path d="M 433.500,109.500 C 431.860,116.473 433.230,116.528 430.500,123.500" stroke-width="3.433" stroke="#ECB390" fill="none" stroke-linecap="round"></path><path d="M 430.500,123.500 C 429.025,132.004 428.860,131.973 427.500,140.500" stroke-width="2.957" stroke="#ECB390" fill="none" stroke-linecap="round"></path><path d="M 427.500,140.500 C 425.256,151.461 425.525,151.504 423.500,162.500" stroke-width="2.501" stroke="#ECB390" fill="none" stroke-linecap="round"></path><path d="M 423.500,162.500 C 421.662,173.462 421.756,173.461 420.500,184.500" stroke-width="2.398" stroke="#ECB390" fill="none" stroke-linecap="round"></path><path d="M 420.500,184.500 C 419.090,202.008 418.662,201.962 417.500,219.500" stroke-width="1.913" stroke="#ECB390" fill="none" stroke-linecap="round"></path><path d="M 417.500,219.500 C 416.126,229.481 416.590,229.508 415.500,239.500" stroke-width="2.380" stroke="#ECB390" fill="none" stroke-linecap="round"></path><path d="M 415.500,239.500 C 415.750,245.510 415.126,245.481 415.500,251.500" stroke-width="2.955" stroke="#ECB390" fill="none" stroke-linecap="round"></path><path d="M 415.500,251.500 C 414.816,257.492 415.250,257.510 414.500,263.500" stroke-width="3.129" stroke="#ECB390" fill="none" stroke-linecap="round"></path><path d="M 414.500,263.500 C 414.500,271.278 414.316,266.992 414.500,270.500" stroke-width="4.066" stroke="#ECB390" fill="none" stroke-linecap="round"></path><path d="M 414.500,270.500 C 413.603,264.884 414.500,269.278 414.500,259.500" stroke-width="4.895" stroke="#ECB390" fill="none" stroke-linecap="round"></path><path d="M 414.500,259.500 C 417.292,250.069 416.103,249.884 419.500,240.500" stroke-width="2.954" stroke="#ECB390" fill="none" stroke-linecap="round"></path><path d="M 419.500,240.500 C 422.668,223.922 423.292,224.069 426.500,207.500" stroke-width="2.237" stroke="#ECB390" fill="none" stroke-linecap="round"></path><path d="M 426.500,207.500 C 430.118,194.029 429.668,193.922 433.500,180.500" stroke-width="2.161" stroke="#ECB390" fill="none" stroke-linecap="round"></path><path d="M 433.500,180.500 C 436.554,165.875 437.118,166.029 440.500,151.500" stroke-width="2.180" stroke="#ECB390" fill="none" stroke-linecap="round"></path><path d="M 440.500,151.500 C 443.699,140.395 443.554,140.375 447.500,129.500" stroke-width="2.372" stroke="#ECB390" fill="none" stroke-linecap="round"></path><path d="M 447.500,129.500 C 451.515,119.006 451.199,118.895 455.500,108.500" stroke-width="2.407" stroke="#ECB390" fill="none" stroke-linecap="round"></path><path d="M 455.500,108.500 C 457.000,104.500 457.015,104.506 458.500,100.500" stroke-width="3.169" stroke="#ECB390" fill="none" stroke-linecap="round"></path><path d="M 458.500,100.500 C 459.717,96.363 460.000,96.500 461.500,92.500" stroke-width="3.595" stroke="#ECB390" fill="none" stroke-linecap="round"></path><path d="M 461.500,92.500 C 463.031,90.018 462.717,89.863 464.500,87.500" stroke-width="3.949" stroke="#ECB390" fill="none" stroke-linecap="round"></path><path d="M 464.500,87.500 C 467.387,79.832 466.531,84.018 468.500,80.500" stroke-width="4.349" stroke="#ECB390" fill="none" stroke-linecap="round"></path><path d="M 468.500,80.500 C 469.291,85.485 469.887,81.332 469.500,90.500" stroke-width="4.958" stroke="#ECB390" fill="none" stroke-linecap="round"></path><path d="M 469.500,90.500 C 469.500,97.500 469.791,97.485 469.500,104.500" stroke-width="3.479" stroke="#ECB390" fill="none" stroke-linecap="round"></path><path d="M 469.500,104.500 C 469.500,114.500 469.500,114.500 469.500,124.500" stroke-width="2.800" stroke="#ECB390" fill="none" stroke-linecap="round"></path><path d="M 469.500,124.500 C 469.500,138.500 469.500,138.500 469.500,152.500" stroke-width="2.225" stroke="#ECB390" fill="none" stroke-linecap="round"></path><path d="M 469.500,152.500 C 469.175,165.512 469.500,165.500 469.500,178.500" stroke-width="2.167" stroke="#ECB390" fill="none" stroke-linecap="round"></path><path d="M 469.500,178.500 C 469.753,185.526 469.675,185.512 470.500,192.500" stroke-width="2.735" stroke="#ECB390" fill="none" stroke-linecap="round"></path><path d="M 470.500,192.500 C 471.500,199.500 471.253,199.526 472.500,206.500" stroke-width="2.906" stroke="#ECB390" fill="none" stroke-linecap="round"></path><path d="M 472.500,206.500 C 472.919,210.014 473.000,210.000 473.500,213.500" stroke-width="3.538" stroke="#ECB390" fill="none" stroke-linecap="round"></path><path d="M 473.500,213.500 C 474.044,215.992 473.919,216.014 474.500,218.500" stroke-width="4.388" stroke="#ECB390" fill="none" stroke-linecap="round"></path><path d="M 474.500,218.500 C 474.956,221.508 475.044,221.492 475.500,224.500" stroke-width="5.044" stroke="#ECB390" fill="none" stroke-linecap="round"></path><path d="M 475.500,224.500 C 475.697,230.303 475.956,227.008 476.500,229.500" stroke-width="5.332" stroke="#ECB390" fill="none" stroke-linecap="round"></path><path d="M 476.500,229.500 C 477.664,224.038 478.197,227.803 480.500,219.500" stroke-width="5.302" stroke="#ECB390" fill="none" stroke-linecap="round"></path><path d="M 480.500,219.500 C 488.342,208.377 487.664,208.038 496.500,197.500" stroke-width="2.547" stroke="#ECB390" fill="none" stroke-linecap="round"></path><path d="M 496.500,197.500 C 498.876,194.387 498.842,194.377 501.500,191.500" stroke-width="3.340" stroke="#ECB390" fill="none" stroke-linecap="round"></path><path d="M 501.500,191.500 C 505.708,186.236 503.876,188.887 506.500,186.500" stroke-width="3.759" stroke="#ECB390" fill="none" stroke-linecap="round"></path><path d="M 506.500,186.500 C 506.128,189.855 507.208,186.736 504.500,192.500" stroke-width="4.790" stroke="#ECB390" fill="none" stroke-linecap="round"></path><path d="M 504.500,192.500 C 501.378,195.902 502.128,196.355 498.500,199.500" stroke-width="3.987" stroke="#ECB390" fill="none" stroke-linecap="round"></path><path d="M 498.500,199.500 C 495.343,203.394 495.378,203.402 492.500,207.500" stroke-width="3.664" stroke="#ECB390" fill="none" stroke-linecap="round"></path><path d="M 492.500,207.500 C 491.168,210.117 490.843,209.894 489.500,212.500" stroke-width="4.055" stroke="#ECB390" fill="none" stroke-linecap="round"></path><path d="M 489.500,212.500 C 487.009,214.733 487.668,215.117 485.500,217.500" stroke-width="3.975" stroke="#ECB390" fill="none" stroke-linecap="round"></path><path d="M 485.500,217.500 C 482.224,222.862 484.009,220.233 483.500,223.500" stroke-width="4.644" stroke="#ECB390" fill="none" stroke-linecap="round"></path><path d="M 483.500,223.500 C 487.785,222.501 485.224,224.362 491.500,220.500" stroke-width="4.815" stroke="#ECB390" fill="none" stroke-linecap="round"></path><path d="M 491.500,220.500 C 494.436,218.909 494.285,219.001 496.500,216.500" stroke-width="4.280" stroke="#ECB390" fill="none" stroke-linecap="round"></path><path d="M 496.500,216.500 C 499.980,211.486 500.436,211.909 503.500,206.500" stroke-width="4.180" stroke="#ECB390" fill="none" stroke-linecap="round"></path><path d="M 503.500,206.500 C 506.253,203.152 505.980,202.986 508.500,199.500" stroke-width="4.354" stroke="#ECB390" fill="none" stroke-linecap="round"></path><path d="M 508.500,199.500 C 510.744,192.555 510.253,196.652 511.500,193.500" stroke-width="4.574" stroke="#ECB390" fill="none" stroke-linecap="round"></path><path d="M 511.500,193.500 C 512.238,198.989 512.744,195.055 512.500,204.500" stroke-width="5.042" stroke="#ECB390" fill="none" stroke-linecap="round"></path><path d="M 512.500,204.500 C 512.651,209.503 512.738,209.489 512.500,214.500" stroke-width="3.951" stroke="#ECB390" fill="none" stroke-linecap="round"></path><path d="M 512.500,214.500 C 511.883,225.997 512.151,226.003 511.500,237.500" stroke-width="2.636" stroke="#ECB390" fill="none" stroke-linecap="round"></path><path d="M 511.500,237.500 C 510.752,245.248 511.383,240.997 511.500,244.500" stroke-width="3.789" stroke="#ECB390" fill="none" stroke-linecap="round"></path><path d="M 511.500,244.500 C 513.053,238.801 512.752,243.248 515.500,233.500" stroke-width="4.813" stroke="#ECB390" fill="none" stroke-linecap="round"></path><path d="M 515.500,233.500 C 519.951,226.216 519.053,225.801 523.500,218.500" stroke-width="3.286" stroke="#ECB390" fill="none" stroke-linecap="round"></path><path d="M 523.500,218.500 C 531.432,201.170 531.451,201.216 538.500,183.500" stroke-width="1.953" stroke="#ECB390" fill="none" stroke-linecap="round"></path><path d="M 538.500,183.500 C 543.859,171.243 543.432,171.170 547.500,158.500" stroke-width="2.116" stroke="#ECB390" fill="none" stroke-linecap="round"></path><path d="M 547.500,158.500 C 549.975,146.495 550.859,146.743 552.500,134.500" stroke-width="2.244" stroke="#ECB390" fill="none" stroke-linecap="round"></path><path d="M 552.500,134.500 C 554.197,127.536 553.975,127.495 555.500,120.500" stroke-width="2.755" stroke="#ECB390" fill="none" stroke-linecap="round"></path><path d="M 555.500,120.500 C 556.324,113.967 556.697,114.036 557.500,107.500" stroke-width="3.034" stroke="#ECB390" fill="none" stroke-linecap="round"></path><path d="M 557.500,107.500 C 558.534,103.007 558.324,102.967 559.500,98.500" stroke-width="3.439" stroke="#ECB390" fill="none" stroke-linecap="round"></path><path d="M 559.500,98.500 C 560.044,96.008 560.034,96.007 560.500,93.500" stroke-width="3.979" stroke="#ECB390" fill="none" stroke-linecap="round"></path><path d="M 560.500,93.500 C 562.107,87.095 561.044,90.508 561.500,87.500" stroke-width="4.502" stroke="#ECB390" fill="none" stroke-linecap="round"></path><path d="M 561.500,87.500 C 559.115,91.347 560.607,88.095 557.500,95.500" stroke-width="5.069" stroke="#ECB390" fill="none" stroke-linecap="round"></path><path d="M 557.500,95.500 C 555.800,100.446 555.615,100.347 554.500,105.500" stroke-width="3.968" stroke="#ECB390" fill="none" stroke-linecap="round"></path><path d="M 554.500,105.500 C 550.349,117.864 551.300,117.946 548.500,130.500" stroke-width="2.500" stroke="#ECB390" fill="none" stroke-linecap="round"></path><path d="M 548.500,130.500 C 548.500,138.500 547.349,138.364 548.500,146.500" stroke-width="2.766" stroke="#ECB390" fill="none" stroke-linecap="round"></path><path d="M 548.500,146.500 C 548.500,155.500 548.500,155.500 548.500,164.500" stroke-width="2.742" stroke="#ECB390" fill="none" stroke-linecap="round"></path><path d="M 548.500,164.500 C 548.500,169.000 548.500,169.000 548.500,173.500" stroke-width="3.336" stroke="#ECB390" fill="none" stroke-linecap="round"></path><path d="M 548.500,173.500 C 548.500,176.500 548.500,176.500 548.500,179.500" stroke-width="3.831" stroke="#ECB390" fill="none" stroke-linecap="round"></path><path d="M 548.500,179.500 C 548.784,183.524 548.500,183.500 548.500,187.500" stroke-width="4.310" stroke="#ECB390" fill="none" stroke-linecap="round"></path><path d="M 548.500,187.500 C 547.752,190.479 548.284,190.524 547.500,193.500" stroke-width="4.623" stroke="#ECB390" fill="none" stroke-linecap="round"></path><path d="M 547.500,193.500 C 547.230,196.527 547.252,196.479 547.500,199.500" stroke-width="4.895" stroke="#ECB390" fill="none" stroke-linecap="round"></path><path d="M 547.500,199.500 C 548.081,201.986 547.730,202.027 548.500,204.500" stroke-width="5.040" stroke="#ECB390" fill="none" stroke-linecap="round"></path><path d="M 548.500,204.500 C 548.962,208.006 549.081,207.986 549.500,211.500" stroke-width="5.355" stroke="#ECB390" fill="none" stroke-linecap="round"></path><path d="M 549.500,211.500 C 549.765,214.558 549.962,214.506 550.500,217.500" stroke-width="5.414" stroke="#ECB390" fill="none" stroke-linecap="round"></path><path d="M 550.500,217.500 C 551.735,220.442 551.265,220.558 552.500,223.500" stroke-width="5.112" stroke="#ECB390" fill="none" stroke-linecap="round"></path><path d="M 552.500,223.500 C 552.817,226.541 553.235,226.442 553.500,229.500" stroke-width="5.419" stroke="#ECB390" fill="none" stroke-linecap="round"></path><path d="M 553.500,229.500 C 553.418,235.459 554.317,233.041 555.500,236.500" stroke-width="5.518" stroke="#ECB390" fill="none" stroke-linecap="round"></path><path d="M 555.500,236.500 C 559.095,235.745 557.418,237.459 561.500,233.500" stroke-width="5.538" stroke="#ECB390" fill="none" stroke-linecap="round"></path><path d="M 561.500,233.500 C 566.441,228.299 566.595,228.745 570.500,222.500" stroke-width="4.364" stroke="#ECB390" fill="none" stroke-linecap="round"></path><path d="M 570.500,222.500 C 573.314,218.145 573.441,218.299 575.500,213.500" stroke-width="3.659" stroke="#ECB390" fill="none" stroke-linecap="round"></path><path d="M 575.500,213.500 C 576.874,209.448 577.314,209.645 578.500,205.500" stroke-width="3.767" stroke="#ECB390" fill="none" stroke-linecap="round"></path><path d="M 578.500,205.500 C 580.749,201.097 580.374,200.948 582.500,196.500" stroke-width="3.563" stroke="#ECB390" fill="none" stroke-linecap="round"></path><path d="M 582.500,196.500 C 584.583,190.526 584.749,190.597 586.500,184.500" stroke-width="3.257" stroke="#ECB390" fill="none" stroke-linecap="round"></path><path d="M 586.500,184.500 C 588.103,179.528 588.083,179.526 589.500,174.500" stroke-width="3.413" stroke="#ECB390" fill="none" stroke-linecap="round"></path><path d="M 589.500,174.500 C 590.785,170.551 590.603,170.528 591.500,166.500" stroke-width="3.667" stroke="#ECB390" fill="none" stroke-linecap="round"></path><path d="M 591.500,166.500 C 591.715,161.949 592.285,162.051 592.500,157.500" stroke-width="3.669" stroke="#ECB390" fill="none" stroke-linecap="round"></path><path d="M 592.500,157.500 C 593.500,153.500 593.215,153.449 594.500,149.500" stroke-width="3.799" stroke="#ECB390" fill="none" stroke-linecap="round"></path><path d="M 594.500,149.500 C 595.637,145.528 595.500,145.500 596.500,141.500" stroke-width="3.738" stroke="#ECB390" fill="none" stroke-linecap="round"></path><path d="M 596.500,141.500 C 596.817,138.459 597.137,138.528 597.500,135.500" stroke-width="3.968" stroke="#ECB390" fill="none" stroke-linecap="round"></path><path d="M 597.500,135.500 C 598.832,132.065 598.317,131.959 599.500,128.500" stroke-width="3.896" stroke="#ECB390" fill="none" stroke-linecap="round"></path><path d="M 599.500,128.500 C 599.860,123.978 600.332,124.065 600.500,119.500" stroke-width="3.616" stroke="#ECB390" fill="none" stroke-linecap="round"></path><path d="M 600.500,119.500 C 601.270,117.027 600.860,116.978 601.500,114.500" stroke-width="4.412" stroke="#ECB390" fill="none" stroke-linecap="round"></path><path d="M 601.500,114.500 C 601.500,111.500 601.770,111.527 601.500,108.500" stroke-width="5.075" stroke="#ECB390" fill="none" stroke-linecap="round"></path><path d="M 601.500,108.500 C 601.500,105.500 601.500,105.500 601.500,102.500" stroke-width="4.866" stroke="#ECB390" fill="none" stroke-linecap="round"></path><path d="M 601.500,102.500 C 602.027,99.399 601.500,99.500 601.500,96.500" stroke-width="5.254" stroke="#ECB390" fill="none" stroke-linecap="round"></path><path d="M 601.500,96.500 C 600.204,94.083 601.027,93.899 599.500,91.500" stroke-width="5.236" stroke="#ECB390" fill="none" stroke-linecap="round"></path><path d="M 599.500,91.500 C 599.000,88.500 598.704,88.583 598.500,85.500" stroke-width="5.450" stroke="#ECB390" fill="none" stroke-linecap="round"></path><path d="M 598.500,85.500 C 598.096,78.904 598.000,82.500 597.500,79.500" stroke-width="5.138" stroke="#ECB390" fill="none" stroke-linecap="round"></path><path d="M 597.500,79.500 C 596.732,84.064 596.596,80.404 595.500,88.500" stroke-width="5.411" stroke="#ECB390" fill="none" stroke-linecap="round"></path><path d="M 595.500,88.500 C 593.581,92.905 594.232,93.064 592.500,97.500" stroke-width="4.637" stroke="#ECB390" fill="none" stroke-linecap="round"></path><path d="M 592.500,97.500 C 591.901,101.490 591.581,101.405 591.500,105.500" stroke-width="3.971" stroke="#ECB390" fill="none" stroke-linecap="round"></path><path d="M 591.500,105.500 C 591.022,111.502 590.901,111.490 590.500,117.500" stroke-width="3.530" stroke="#ECB390" fill="none" stroke-linecap="round"></path><path d="M 590.500,117.500 C 589.824,122.992 590.022,123.002 589.500,128.500" stroke-width="3.445" stroke="#ECB390" fill="none" stroke-linecap="round"></path><path d="M 589.500,128.500 C 589.687,131.509 589.324,131.492 589.500,134.500" stroke-width="3.873" stroke="#ECB390" fill="none" stroke-linecap="round"></path><path d="M 589.500,134.500 C 588.795,139.490 589.187,139.509 588.500,144.500" stroke-width="3.571" stroke="#ECB390" fill="none" stroke-linecap="round"></path><path d="M 588.500,144.500 C 588.500,148.000 588.295,147.990 588.500,151.500" stroke-width="3.850" stroke="#ECB390" fill="none" stroke-linecap="round"></path><path d="M 588.500,151.500 C 588.500,155.000 588.500,155.000 588.500,158.500" stroke-width="3.943" stroke="#ECB390" fill="none" stroke-linecap="round"></path><path d="M 588.500,158.500 C 588.500,164.000 588.500,164.000 588.500,169.500" stroke-width="4.110" stroke="#ECB390" fill="none" stroke-linecap="round"></path><path d="M 588.500,169.500 C 588.500,172.500 588.500,172.500 588.500,175.500" stroke-width="4.186" stroke="#ECB390" fill="none" stroke-linecap="round"></path><path d="M 588.500,175.500 C 588.500,180.000 588.500,180.000 588.500,184.500" stroke-width="4.347" stroke="#ECB390" fill="none" stroke-linecap="round"></path><path d="M 588.500,184.500 C 588.041,188.057 588.500,188.000 588.500,191.500" stroke-width="4.564" stroke="#ECB390" fill="none" stroke-linecap="round"></path><path d="M 588.500,191.500 C 589.014,195.680 589.041,195.557 590.500,199.500" stroke-width="5.079" stroke="#ECB390" fill="none" stroke-linecap="round"></path><path d="M 590.500,199.500 C 592.437,204.906 592.514,204.680 595.500,209.500" stroke-width="4.479" stroke="#ECB390" fill="none" stroke-linecap="round"></path><path d="M 595.500,209.500 C 597.903,212.103 597.437,212.406 600.500,214.500" stroke-width="5.061" stroke="#ECB390" fill="none" stroke-linecap="round"></path><path d="M 600.500,214.500 C 604.399,218.123 604.403,218.103 608.500,221.500" stroke-width="4.492" stroke="#ECB390" fill="none" stroke-linecap="round"></path><path d="M 608.500,221.500 C 613.179,224.797 612.899,225.123 617.500,228.500" stroke-width="3.640" stroke="#ECB390" fill="none" stroke-linecap="round"></path><path d="M 617.500,228.500 C 619.896,231.113 620.179,230.797 622.500,233.500" stroke-width="3.910" stroke="#ECB390" fill="none" stroke-linecap="round"></path><path d="M 622.500,233.500 C 625.959,236.549 625.896,236.613 629.500,239.500" stroke-width="3.722" stroke="#ECB390" fill="none" stroke-linecap="round"></path><circle r="1.5" cx="225.5" cy="155.5" fill="#ECB390"></circle></svg>