<svg aria-hidden="true" style="position: absolute; width: 0; height: 0; overflow: hidden;" version="1.1" xmlns="http://www.w3.org/2000/svg" xmlns:xlink="http://www.w3.org/1999/xlink">
<defs>
<symbol id="icon-html-five2" viewBox="0 0 32 32">
<path d="M1.892 0l2.567 28.801 11.524 3.199 11.554-3.204 2.572-28.796h-28.216zM25.336 26.963l-9.288 2.574v0.015l-0.024-0.007-0.024 0.007v-0.015l-9.288-2.574-2.195-24.609h23.015l-2.195 24.609zM20.336 16.569l-0.408 4.58-3.944 1.065-3.933-1.060-0.252-2.82h-3.547l0.495 5.547 7.252 2.006 7.229-2.006 0.97-10.844h-12.874l-0.322-3.617h13.517l0.316-3.532h-17.694l0.953 10.681z"></path>
</symbol>
<symbol id="icon-css3" viewBox="0 0 32 32">
<path d="M4.762 1.516l-1.074 5.373h21.867l-0.684 3.47h-21.881l-1.059 5.372h21.865l-1.219 6.127-8.813 2.919-7.638-2.919 0.523-2.658h-5.372l-1.278 6.448 12.632 4.834 14.563-4.834 4.805-24.133z"></path>
</symbol>
</defs>
</svg>
